<svg xmlns="http://www.w3.org/2000/svg" viewBox="0 0 512 512" fill="none">
  <g stroke="#00E5FF" stroke-width="6" stroke-linecap="round" stroke-linejoin="round">
    <!-- Outer ring -->
    <polygon points="256,42 355,80 420,155 440,256 420,357 355,432 256,470 157,432 92,357 72,256 92,155 157,80"/>
    <!-- Inner ring 1 -->
    <polygon points="256,90 330,120 380,185 395,256 380,327 330,392 256,422 182,392 132,327 117,256 132,185 182,120"/>
    <!-- Inner ring 2 (rotated) -->
    <polygon points="200,72 312,100 405,192 430,300 370,405 260,445 148,410 85,310 80,200 140,105"/>
    <!-- Cross struts outer to inner -->
    <line x1="256" y1="42" x2="256" y2="90"/>
    <line x1="355" y1="80" x2="330" y2="120"/>
    <line x1="420" y1="155" x2="380" y2="185"/>
    <line x1="440" y1="256" x2="395" y2="256"/>
    <line x1="420" y1="357" x2="380" y2="327"/>
    <line x1="355" y1="432" x2="330" y2="392"/>
    <line x1="256" y1="470" x2="256" y2="422"/>
    <line x1="157" y1="432" x2="182" y2="392"/>
    <line x1="92" y1="357" x2="132" y2="327"/>
    <line x1="72" y1="256" x2="117" y2="256"/>
    <line x1="92" y1="155" x2="132" y2="185"/>
    <line x1="157" y1="80" x2="182" y2="120"/>
    <!-- Diagonal cross-connections for depth -->
    <line x1="256" y1="90" x2="380" y2="185"/>
    <line x1="330" y1="120" x2="395" y2="256"/>
    <line x1="380" y1="185" x2="380" y2="327"/>
    <line x1="395" y1="256" x2="330" y2="392"/>
    <line x1="380" y1="327" x2="256" y2="422"/>
    <line x1="330" y1="392" x2="182" y2="392"/>
    <line x1="256" y1="422" x2="132" y2="327"/>
    <line x1="182" y1="392" x2="117" y2="256"/>
    <line x1="132" y1="327" x2="132" y2="185"/>
    <line x1="117" y1="256" x2="182" y2="120"/>
    <line x1="132" y1="185" x2="256" y2="90"/>
    <line x1="182" y1="120" x2="330" y2="120"/>
    <!-- Inner cross-braces for 3D wireframe effect -->
    <line x1="200" y1="72" x2="256" y2="90"/>
    <line x1="312" y1="100" x2="330" y2="120"/>
    <line x1="405" y1="192" x2="380" y2="185"/>
    <line x1="430" y1="300" x2="395" y2="256"/>
    <line x1="370" y1="405" x2="380" y2="327"/>
    <line x1="260" y1="445" x2="256" y2="422"/>
    <line x1="148" y1="410" x2="182" y2="392"/>
    <line x1="85" y1="310" x2="132" y2="327"/>
    <line x1="80" y1="200" x2="117" y2="256"/>
    <line x1="140" y1="105" x2="132" y2="185"/>
  </g>
</svg>
